<svg width="99.219mm" height="99.22mm" version="1.1" viewBox="0 0 99.219 99.22" xml:space="preserve" xmlns="http://www.w3.org/2000/svg"><g transform="translate(4.5035 -93.892)"><path d="m2.9087 186.7c4e-3 -7.2558 0.21104-8.6381 1.7605-11.779 2.054-4.1631 7.0891-8.1552 11.266-8.9323l0.99219-0.1846 0.03307-12.274c0.01819-6.7505 0.05407-12.363 0.07974-12.472s0.14198-0.91161 0.25848-1.7833c0.76332-5.7112 3.6756-11.404 8.0636-15.761 3.7481-3.7223 7.8677-6.05 13.129-7.4182 2.016-0.52429 3.0306-0.61927 6.6146-0.61927 4.8225 0 7.2088 0.46847 11.245 2.2076 6.9345 2.9881 12.542 8.8987 15.105 15.922 1.5286 4.1885 1.6126 4.9076 1.7511 14.993l0.12811 9.3266h-6.0789l-0.12355-8.7974c-0.11151-7.9401-0.179-9.0023-0.69263-10.9-1.2286-4.5388-4.0875-9.0126-7.489-11.719-7.4006-5.8888-16.97-6.6039-24.931-1.8629-5.1798 3.085-8.807 7.9758-10.16 13.7-0.47633 2.0147-0.55079 3.5512-0.71488 14.751l-0.18317 12.502 24.83 4e-3c27.569 4e-3 26.479-0.0597 30.254 1.7783 2.9515 1.437 6.1724 4.7142 7.6098 7.7428 1.6419 3.4595 1.7771 4.3338 1.7802 11.509l0.0028 6.35-84.534 0.1339 4e-3 -6.417zm78.272-3.3081c-0.0873-3.1301-0.15388-3.4998-0.92303-5.1259-1.4514-3.0684-3.7481-5.0782-6.924-6.0591-1.6382-0.50599-2.5473-0.52283-28.228-0.52283-25.708 0-26.588 0.0163-28.233 0.52446-3.4125 1.054-6.3042 3.9458-7.3582 7.3582-0.38036 1.2315-0.52447 2.4537-0.52447 4.4483v2.7503h72.284zm-85.684-42.929h13.229v6.0854h-13.229zm57.776 3.9103c-0.41364-2.6864-1.0537-4.2305-2.0786-5.5728-1.1466-1.5016-3.5381-2.7392-5.9085-3.0576-2.3197-0.31155-3.0899-1.0806-3.0899-3.0852 0-1.9049 1.2519-2.9116 2.6884-2.9735 3.3462-0.14417 7.3564 1.3115 10.114 4.0979 2.6914 2.7197 3.8127 7.251 3.8002 10.005-0.0065 1.4139-0.47901 2.9495-2.6081 3.1155-2.3242 0.1812-2.7646-1.5376-2.9173-2.5291zm28.214-3.9103h13.229v6.0854h-13.229v-6.0854zm-73.557-29.774 4.377-4.3542 9.388 9.3988-4.3778 4.0921zm60.857 5.0266 9.2612-9.5111 4.36 4.36-9.5239 9.2612zm-26.723-21.819h6.0854v13.229h-6.0854z" fill="#e33d55" stroke-width=".26458"/></g></svg>
