<?xml version="1.0" encoding="UTF-8"?>
<svg width="300mm" height="300mm" version="1.1" viewBox="0 0 300 300" xml:space="preserve" xmlns="http://www.w3.org/2000/svg"><rect x="-26.832" y="-21.672" width="347.27" height="347.27" fill="#d9d9d9" stroke-width="1.114"/><path d="m133.33 170q-1.3333 0-2.3334-1-0.99996-0.99996-0.99996-2.3333v-33.333q0-1.3333 0.99996-2.3334 1-0.99996 2.3334-0.99996h33.333q1.3333 0 2.3333 0.99996 1 1 1 2.3334v33.333q0 1.3333-1 2.3333-0.99996 1-2.3333 1zm0-3.3333h33.333v-33.333h-33.333zm3.1111-5.3889h27.167l-8.1666-10.889-7.3333 9.5-5.1667-7.0555zm-3.1111 5.3889v-33.333z" fill="#1c1b1f" stroke-width="3.656"/></svg>
